<svg id="Layer_1" data-name="Layer 1" xmlns="http://www.w3.org/2000/svg" viewBox="0 0 122.88 80.77"><defs><style>.cls-1{fill-rule:evenodd;}</style></defs><title>photo-editor</title><path class="cls-1" d="M109.47,24.62l12.12,10.94a3.93,3.93,0,0,1,.29,5.53l-6.06,6.71L97.89,31.61l6-6.7a3.93,3.93,0,0,1,5.53-.29ZM59.17,47.23l13-22.53a.92.92,0,0,1,1.66.13l4.68,11.81L67.19,49.45A11.14,11.14,0,0,0,64,56.18l-.94,5.12-.34,1.86H19.27a.93.93,0,0,1-.93-.93v-4.6a.93.93,0,0,1,.93-.93l5.11-.25L29.9,42.92a.92.92,0,0,1,1.21-.51.89.89,0,0,1,.54.61l2.68,9.38h7.29l7.24-18.66a.93.93,0,0,1,1.2-.53.84.84,0,0,1,.44.37l8.67,13.65ZM11.15,0H92a11.05,11.05,0,0,1,4.26.85,11.17,11.17,0,0,1,6,6,11.05,11.05,0,0,1,.85,4.26V13c-.47.12-.93.26-1.39.42l-.09,0h0l-.08,0-.09,0h0l-.08,0-.09,0h0l-.09,0-.08,0h0l-.09,0-.08,0h0l-.09,0-.08,0h0l-.08,0-.07,0h0l-.08,0-.07,0h0l-.08,0-.07,0h0l-.08,0-.06,0h0l-.09,0-.06,0h0l-.09.05,0,0h0l-.08,0,0,0,0,0-.09,0,0,0,0,0-.08.05-.05,0,0,0-.08.05,0,0,0,0-.08.05,0,0,0,0-.08,0,0,0,0,0-.08,0,0,0,0,0-.08.05-.39.27-.08,0,0,0-.06,0-.07.06-.08.05-.08.06-.07.06-.08.06h0l-.07.06-.07.06h0l-.07.06-.07.06h0l-.37.31-.07.06h0l-.08.07a13.72,13.72,0,0,0-1.15,1.14l-.45.51V11.15A3.09,3.09,0,0,0,95,9.93a3.22,3.22,0,0,0-1.75-1.75A3.09,3.09,0,0,0,92,7.94H11.15a3.09,3.09,0,0,0-1.22.24A3.22,3.22,0,0,0,8.18,9.93a3.09,3.09,0,0,0-.24,1.22V69.62a3.12,3.12,0,0,0,.24,1.22,3.25,3.25,0,0,0,3,2H61l-.21,1.39v.18h0l0,.09v.27h0v.87l0,.08,0,.26v.58h0V78.2h0v1.16c0,.49,0,.95,0,1.4H11.15a11.19,11.19,0,0,1-10.3-6.9A11,11,0,0,1,0,69.62V11.15A11.05,11.05,0,0,1,.85,6.89,11.44,11.44,0,0,1,3.27,3.27,11.37,11.37,0,0,1,6.9.85,11,11,0,0,1,11.15,0Zm19,18.49a7.83,7.83,0,1,1-5.53,13.36l0-.06a7.82,7.82,0,0,1,0-11l.06-.05a7.78,7.78,0,0,1,5.47-2.24ZM93,73.46c-4.54,1.66-8.15,2.4-12.69,4.06-9.62,2.61-9.43,4.81-8.09-4.45L75.1,57.31h0L94.83,35l17.93,16.18L93,73.47ZM78.17,60.07,89.94,70.69,81,74c-7,2.56-6.91,4-5.32-2.94l2.5-11Z"/></svg>